<svg xmlns="http://www.w3.org/2000/svg" viewBox="0 0 147.6 133.6"><style type="text/css">.st0{fill:#003E6B;}.st1{fill:#FFFFFF;}</style><rect class="st0" width="133.5" height="133.6"/><path class="st0" d="M136.2 9.6V2.5h-1.7V1h5.1v1.5h-1.7v7.1H136.2zM146 9.6v-6h0l-1.3 6h-1.2l-1.4-6h0v6h-1.5V1h2.3l1.2 5.4h0l1.3-5.4h2.2v8.6H146z"/><path class="st1" d="M25.4 88.7c8.9 0 15.8-2.6 15.8-13.2 0-5.2-1.9-9.1-7-10.9v-0.1c3.8-1.7 5.9-4.9 5.9-9.7 0-8.5-4.8-11.9-15.3-11.9H13.5v45.9H25.4zM67.4 73c-1 6.3-3.1 9.5-6.8 9.5 -4.9 0-7-4.3-7-17C53.6 53.9 56 49 60.7 49c3.4 0 5.4 2.9 6.3 8.7l7-0.6c-1.1-9.3-4.7-14.8-13.5-14.8 -10.9 0-14.7 10.1-14.7 23.3 0 14.8 3.6 23.7 14.6 23.7 8.4 0 12.6-5.3 14.1-15.5L67.4 73zM88.5 88.7V42.8h-7.6v45.9H88.5zM111.7 88.7v-39h9.5v-6.9H94.7v6.9h9.5v39H111.7z"/><path class="st0" d="M20.9 61.8V49.6h4.2c3.7 0 7.3 0.9 7.3 5.8 0 5-3.4 6.5-7.3 6.5H20.9zM20.9 81.9V68h5c5 0 7.5 2 7.5 7 0 5-2.3 6.8-7.6 6.8H20.9z"/></svg>